<svg width="54" height="54" viewBox="0 0 54 54" fill="none" xmlns="http://www.w3.org/2000/svg">
<path fill-rule="evenodd" clip-rule="evenodd" d="M19.647 12.9848L12.7575 22.3065C9.86626 26.2193 8.41951 28.1745 9.21601 29.7113L9.25651 29.7878C10.1003 31.302 12.5978 31.302 17.5905 31.302C20.3648 31.302 21.753 31.302 22.6215 32.1188L22.6665 32.1638L31.3785 21.8813L31.3335 21.8363C30.4808 21.0015 30.4808 19.6695 30.4808 17.0033V16.3058C30.4808 8.91451 30.4808 5.22001 28.404 4.58326C26.3273 3.94651 24.0998 6.95926 19.647 12.9848Z" fill="white"/>
<path opacity="0.5" d="M23.5193 36.9968V37.6943C23.5193 45.0833 23.5193 48.78 25.596 49.4168C27.6728 50.0535 29.9003 47.0408 34.3553 41.0153L41.2448 31.6935C44.1338 27.7808 45.5805 25.8255 44.784 24.2888L44.7435 24.2123C43.8998 22.698 41.4023 22.698 36.4095 22.698C33.6353 22.698 32.247 22.698 31.3785 21.8813L22.6665 32.1638C23.5193 32.9985 23.5193 34.3305 23.5193 36.9968Z" fill="white"/>
</svg>
