<svg width="24" height="24" viewBox="0 0 24 24" fill="none" xmlns="http://www.w3.org/2000/svg">
<path d="M7.378 12.556L6.816 13.053C6.88296 13.1285 6.96447 13.1897 7.05564 13.233C7.14682 13.2763 7.2458 13.3007 7.34664 13.3048C7.44748 13.3089 7.54811 13.2926 7.6425 13.2569C7.7369 13.2212 7.82312 13.1668 7.896 13.097L7.378 12.556ZM9.519 11.541C9.65595 11.4019 9.73327 11.2149 9.73454 11.0197C9.7358 10.8245 9.66091 10.6365 9.52578 10.4956C9.39064 10.3547 9.2059 10.2721 9.01082 10.2653C8.81573 10.2584 8.62566 10.3279 8.481 10.459L9.519 11.541ZM6.561 10.503C6.49698 10.4251 6.41791 10.3609 6.32851 10.3143C6.23912 10.2677 6.14124 10.2395 6.04073 10.2316C5.94021 10.2236 5.83913 10.236 5.74352 10.268C5.6479 10.3 5.55973 10.351 5.48426 10.4179C5.40879 10.4847 5.34757 10.5661 5.30427 10.6572C5.26098 10.7482 5.23648 10.8471 5.23226 10.9478C5.22803 11.0486 5.24416 11.1491 5.27968 11.2435C5.31521 11.3378 5.36939 11.4241 5.439 11.497L6.561 10.503ZM14.931 9.00901C14.9978 9.08137 15.0783 9.13985 15.1677 9.18112C15.2572 9.22239 15.3539 9.24564 15.4523 9.24954C15.5507 9.25344 15.649 9.23792 15.7414 9.20385C15.8338 9.16979 15.9186 9.11785 15.991 9.05101C16.0634 8.98417 16.1218 8.90373 16.1631 8.81428C16.2044 8.72484 16.2276 8.62814 16.2315 8.52971C16.2354 8.43128 16.2199 8.33304 16.1858 8.24061C16.1518 8.14818 16.0998 8.06337 16.033 7.99101L14.931 9.00901ZM12.045 6.25001C9.059 6.25001 6.629 8.65301 6.629 11.63H8.129C8.129 9.49301 9.876 7.75001 12.045 7.75001V6.25001ZM6.629 11.63V12.556H8.129V11.63H6.629ZM7.898 13.097L9.52 11.541L8.482 10.459L6.86 12.014L7.898 13.097ZM7.94 12.058L6.561 10.503L5.439 11.497L6.816 13.053L7.94 12.058ZM16.033 7.99101C15.5244 7.44078 14.9082 7.00198 14.2215 6.70232C13.5347 6.40265 12.7933 6.24864 12.044 6.25001V7.75001C12.5865 7.74868 13.1234 7.85998 13.6207 8.07686C14.118 8.29375 14.5649 8.6115 14.933 9.01001L16.033 7.99101ZM16.619 11.444L17.179 10.946C17.112 10.8706 17.0304 10.8094 16.9392 10.7662C16.848 10.7231 16.749 10.6987 16.6481 10.6947C16.5473 10.6907 16.4467 10.7071 16.3523 10.7429C16.258 10.7787 16.1718 10.8331 16.099 10.903L16.619 11.444ZM14.48 12.458C14.3365 12.5959 14.2537 12.7852 14.2498 12.9842C14.2458 13.1831 14.3211 13.3755 14.459 13.519C14.5969 13.6625 14.7862 13.7453 14.9851 13.7492C15.1841 13.7532 15.3765 13.6779 15.52 13.54L14.48 12.458ZM17.44 13.498C17.5738 13.6405 17.7579 13.7251 17.9532 13.7339C18.1485 13.7426 18.3394 13.6748 18.4854 13.5448C18.6314 13.4148 18.7209 13.233 18.7348 13.0381C18.7488 12.8431 18.686 12.6504 18.56 12.501L17.44 13.498ZM9.047 15.005C8.91014 14.8633 8.72302 14.7812 8.52608 14.7763C8.32914 14.7714 8.13819 14.8442 7.9945 14.979C7.85081 15.1138 7.7659 15.2997 7.75814 15.4965C7.75037 15.6933 7.82037 15.8853 7.953 16.031L9.047 15.005ZM11.935 17.75C14.928 17.75 17.369 15.35 17.369 12.37H15.869C15.869 14.505 14.116 16.25 11.935 16.25V17.75ZM17.369 12.37V11.444H15.869V12.37H17.369ZM16.099 10.903L14.48 12.458L15.52 13.54L17.138 11.985L16.099 10.903ZM16.059 11.943L17.439 13.497L18.561 12.501L17.179 10.946L16.059 11.943ZM7.952 16.03C8.46273 16.5738 9.07968 17.007 9.76463 17.3027C10.4496 17.5984 11.188 17.7503 11.934 17.749V16.249C10.791 16.249 9.764 15.769 9.046 15.004L7.952 16.03Z" fill="black"/>
<path d="M12 22C17.5228 22 22 17.5228 22 12C22 6.47715 17.5228 2 12 2C6.47715 2 2 6.47715 2 12C2 17.5228 6.47715 22 12 22Z" stroke="black" stroke-width="1.5"/>
</svg>
